<?xml version="1.0" encoding="UTF-8"?>
<svg id="Layer_2" data-name="Layer 2" xmlns="http://www.w3.org/2000/svg" viewBox="0 0 546.1 267.25">
  <defs>
    <style>
      .cls-1 {
        fill: blue;
      }

      .cls-2 {
        fill: #fff;
        stroke: #000;
        stroke-miterlimit: 10;
      }

      .cls-3 {
        fill: #ed1c24;
      }
    </style>
  </defs>
  <g id="Layer_1-2" data-name="Layer 1">
    <g>
      <path class="cls-2" d="m280.94,78.68v16.96c0,1.97.85,3.26,2.55,3.87.81.31,1.38.72,1.71,1.25.32.53.48,1.5.48,2.93s-.19,2.2-.56,2.52c-.37.32-1.12.48-2.24.48h-23.07c-1.22,0-1.83-1.07-1.83-3.21,0-1.7.08-2.74.25-3.13.17-.39.75-.74,1.73-1.04.88-.27,1.43-.57,1.65-.89.22-.32.33-.87.33-1.65v-61.51c0-1.46-.9-2.63-2.7-3.51-.95-.51-1.44-1.29-1.48-2.34l-.05-2.39c0-1.02.13-1.69.38-2.01.25-.32.82-.48,1.71-.48h26.07c7.5,0,13.48,2.4,17.95,7.2,4.46,4.8,6.7,11.45,6.7,19.93,0,4.79-.69,9.05-2.06,12.78-1.38,3.73-3.11,6.48-5.19,8.25-2.09,1.77-4.5,3.21-7.23,4.33-2.73,1.12-5.64,1.68-8.73,1.68h-6.36Zm0-48.52v42.67h3.56c1.22,0,2.32-.67,3.28-2.01.97-1.34,1.45-3.57,1.45-6.7v-25.41c0-5.7-1.9-8.55-5.7-8.55h-2.6Z"/>
      <path class="cls-2" d="m334.81,43.65c5.19-4.82,9.76-7.23,13.7-7.23,2.92,0,5.46,1.09,7.64,3.26,2.17,2.17,3.26,5.04,3.26,8.6v48.57c0,1.26.36,2.16,1.07,2.7,1.02.78,1.53,1.9,1.53,3.36,0,1.63-.12,2.67-.36,3.11-.24.44-.78.66-1.63.66h-12.98c-1.12,0-2.16-.81-3.11-2.44-.95-1.63-1.43-3.56-1.43-5.8v-47.4c0-.88-.3-1.69-.89-2.42-.59-.73-1.3-1.09-2.11-1.09-1.29,0-2.85.78-4.68,2.34v47c0,1.12.46,2.12,1.38,3,.92.92,1.37,1.7,1.37,2.34,0,2.34-.07,3.67-.2,4-.14.32-.8.48-1.99.48h-18.43c-.78,0-1.31-.16-1.58-.48-.27-.32-.41-1.08-.41-2.27,0-1.46.08-2.38.23-2.77.15-.39.57-.84,1.25-1.35.98-.71,1.48-1.7,1.48-2.95v-62.47c0-2.27-.73-3.55-2.19-3.82-.78-.17-1.17-.63-1.17-1.38v-3.62c0-.71.42-1.07,1.27-1.07h17.11c1.26,0,1.88.61,1.88,1.83v17.31Z"/>
      <path class="cls-2" d="m388.53,36.42c6.38,0,11.71,2.86,15.99,8.58,4.28,5.72,6.42,14.21,6.42,25.48,0,12.15-2.17,21.34-6.52,27.57-4.35,6.23-9.76,9.34-16.24,9.34-4.48,0-8.37-1.43-11.66-4.28-3.29-2.85-5.83-6.65-7.61-11.41-1.78-4.75-2.67-11.25-2.67-19.5,0-11.78,2.04-20.69,6.14-26.73,4.09-6.04,9.48-9.06,16.17-9.06Zm3.67,12.78c0-4.21-1.22-6.31-3.67-6.31-2.65,0-3.97,2.58-3.97,7.74v42.31c0,5.13,1.2,7.69,3.62,7.69,2.68,0,4.02-2.56,4.02-7.69v-43.74Z"/>
      <path class="cls-2" d="m418.41,44.11h-1.99c-.58,0-.94-.07-1.09-.2-.15-.14-.23-.51-.23-1.12v-3.67c0-.68.08-1.12.23-1.32s.6-.36,1.35-.46c2.44-.37,4.9-1.73,7.38-4.07,2.48-2.34,3.95-4.85,4.43-7.54.17-.95.38-1.54.64-1.76.25-.22.77-.33,1.55-.33h3.31c.88,0,1.32.59,1.32,1.78v11.71h3.16c1.19,0,1.78.56,1.78,1.68v3.67c0,1.09-.59,1.63-1.78,1.63h-3.16v52.75c0,1.8.8,3.09,2.39,3.87.78.37,1.29.83,1.53,1.37.24.54.36,1.53.36,2.95,0,.88-.06,1.38-.18,1.48-.12.1-.53.15-1.25.15h-16.09c-2.44-2.17-3.67-5.45-3.67-9.83v-52.75Z"/>
      <path class="cls-2" d="m466.73,36.42c6.38,0,11.71,2.86,15.99,8.58,4.28,5.72,6.42,14.21,6.42,25.48,0,12.15-2.17,21.34-6.52,27.57-4.35,6.23-9.76,9.34-16.24,9.34-4.48,0-8.37-1.43-11.66-4.28-3.29-2.85-5.83-6.65-7.61-11.41-1.78-4.75-2.67-11.25-2.67-19.5,0-11.78,2.04-20.69,6.14-26.73,4.09-6.04,9.48-9.06,16.17-9.06Zm3.67,12.78c0-4.21-1.22-6.31-3.67-6.31-2.65,0-3.97,2.58-3.97,7.74v42.31c0,5.13,1.2,7.69,3.62,7.69,2.68,0,4.02-2.56,4.02-7.69v-43.74Z"/>
      <path class="cls-2" d="m293.97,226.83c-3.06,3.93-6.82,5.9-11.3,5.9-6.99,0-12.71-4.11-17.16-12.32-4.45-8.21-6.67-17.96-6.67-29.23,0-12.76,2.51-23.11,7.54-31.03,5.02-7.93,10.96-11.89,17.82-11.89,3.29,0,6.21.85,8.76,2.55.81.51,1.44.76,1.88.76.61,0,1.14-.58,1.58-1.73.41-1.05,1.12-1.58,2.14-1.58h.61l1.63.1c1.09.17,1.76.93,2.04,2.29l3.26,16.19c.34,1.66.51,2.78.51,3.36,0,1.19-.9,1.78-2.7,1.78s-2.9-.25-3.41-.76c-.51-.51-1.53-2.29-3.05-5.35-2.04-4.14-3.83-7.02-5.37-8.63-1.54-1.61-3.2-2.42-4.96-2.42-4.65,0-6.98,3.7-6.98,11.1v54.68c0,4,1.27,6.01,3.82,6.01,2.78,0,4.17-2,4.17-6v-26.59c0-1.73-.59-2.85-1.78-3.36-1.29-.55-1.94-1.66-1.94-3.33,0-1.81.17-2.9.51-3.26.34-.36,1.07-.54,2.19-.54h21.54c1.05,0,1.76.19,2.11.56.36.38.53,1.23.53,2.56,0,1.4-.11,2.34-.33,2.82-.22.48-.76.87-1.6,1.18-1.22.44-1.83,1.37-1.83,2.8v34.58c0,2.07-.14,3.37-.41,3.89-.27.53-.98.79-2.14.79-1.05,0-1.81-.08-2.27-.23-.46-.15-1.09-.62-1.91-1.4-2.27-2.2-4.55-3.63-6.82-4.27Z"/>
      <path class="cls-2" d="m341.17,182.48v-9.83c0-2.72-1.1-4.07-3.31-4.07-3.02,0-4.53,2.05-4.53,6.16,0,2.31-.26,3.95-.79,4.94-.53.98-1.71,1.82-3.56,2.52-1.85.7-3.83,1.04-5.93,1.04-4.31,0-6.47-2.31-6.47-6.92,0-4.34,1.88-7.89,5.63-10.64,3.75-2.75,8.65-4.12,14.69-4.12,3.97,0,7.54.54,10.72,1.63,3.17,1.08,5.71,2.92,7.61,5.49s2.85,5.41,2.86,8.5v46.45c.07.24.58.75,1.53,1.53.68.51,1.02,1.26,1.02,2.24,0,1.36-.19,2.32-.56,2.88-.37.56-1.28,1.08-2.72,1.55-1.44.47-3.25.71-5.42.71-2.65,0-4.85-.48-6.62-1.45-1.77-.97-3.14-2.86-4.12-5.68-2.95,3.05-5.35,5.01-7.18,5.85-1.83.85-3.72,1.27-5.65,1.27-4.3,0-7.64-1.69-10-5.06-2.36-3.37-3.54-8.89-3.54-16.56,0-7.66,1.11-12.98,3.31-15.95,2.2-2.97,6.52-5.71,12.93-8.21,4.07-1.56,7.45-2.98,10.13-4.27Zm0,6.62c-3.84,1.69-6.13,3.6-6.87,5.72-.75,2.12-1.12,6.89-1.12,14.31,0,5.46.31,8.91.92,10.35.61,1.44,1.66,2.16,3.16,2.16,2.61,0,3.92-2.17,3.92-6.51v-26.03Z"/>
      <path class="cls-2" d="m364.75,153.81v-2.55c0-1.09.71-1.63,2.14-1.63h15.73c.85,0,1.41.07,1.68.2.27.14.41.71.41,1.73v71.13c0,1.56.51,2.53,1.53,2.9.71.27,1.07.85,1.07,1.73v2.9c0,1.05-.76,1.58-2.29,1.58h-18.69c-1.05,0-1.58-.53-1.58-1.58v-2.9c0-1.19.53-2.07,1.58-2.65.68-.34,1.1-.65,1.27-.94.17-.29.25-.84.25-1.65v-63.09c0-1.19-.46-1.99-1.37-2.39-1.15-.58-1.73-1.51-1.73-2.8Z"/>
      <path class="cls-2" d="m391.89,153.81v-2.55c0-1.09.71-1.63,2.14-1.63h15.73c.85,0,1.41.07,1.68.2.27.14.41.71.41,1.73v71.13c0,1.56.51,2.53,1.53,2.9.71.27,1.07.85,1.07,1.73v2.9c0,1.05-.76,1.58-2.29,1.58h-18.69c-1.05,0-1.58-.53-1.58-1.58v-2.9c0-1.19.53-2.07,1.58-2.65.68-.34,1.1-.65,1.27-.94.17-.29.25-.84.25-1.65v-63.09c0-1.19-.46-1.99-1.37-2.39-1.15-.58-1.73-1.51-1.73-2.8Z"/>
      <path class="cls-2" d="m445.4,182.48v-9.83c0-2.72-1.1-4.07-3.31-4.07-3.02,0-4.53,2.05-4.53,6.16,0,2.31-.26,3.95-.79,4.94-.53.98-1.71,1.82-3.56,2.52-1.85.7-3.83,1.04-5.93,1.04-4.31,0-6.47-2.31-6.47-6.92,0-4.34,1.88-7.89,5.63-10.64,3.75-2.75,8.65-4.12,14.69-4.12,3.97,0,7.54.54,10.72,1.63,3.17,1.08,5.71,2.92,7.61,5.49s2.85,5.41,2.86,8.5v46.45c.07.24.58.75,1.53,1.53.68.51,1.02,1.26,1.02,2.24,0,1.36-.19,2.32-.56,2.88-.37.56-1.28,1.08-2.72,1.55-1.44.47-3.25.71-5.42.71-2.65,0-4.85-.48-6.62-1.45-1.77-.97-3.14-2.86-4.12-5.68-2.95,3.05-5.35,5.01-7.18,5.85-1.83.85-3.72,1.27-5.65,1.27-4.3,0-7.64-1.69-10-5.06-2.36-3.37-3.54-8.89-3.54-16.56,0-7.66,1.11-12.98,3.31-15.95,2.2-2.97,6.52-5.71,12.93-8.21,4.07-1.56,7.45-2.98,10.13-4.27Zm0,6.62c-3.84,1.69-6.13,3.6-6.87,5.72-.75,2.12-1.12,6.89-1.12,14.31,0,5.46.31,8.91.92,10.35.61,1.44,1.66,2.16,3.16,2.16,2.61,0,3.92-2.17,3.92-6.51v-26.03Z"/>
      <path class="cls-2" d="m487.1,175.81c.41-.81.9-2.24,1.48-4.28,1.29-4.41,2.55-7.18,3.79-8.3,1.24-1.12,2.6-1.68,4.1-1.68,2.04,0,3.57.97,4.61,2.9,1.04,1.94,1.55,4.36,1.55,7.28,0,6.28-1.77,9.42-5.3,9.42-1.77,0-3.12-1.04-4.07-3.11-.58-1.19-1.17-1.78-1.78-1.78-1.53,0-2.29,1.68-2.29,5.04v40.68c0,1.29.59,2.24,1.78,2.85,1.19.58,1.78,1.51,1.78,2.8v2.29c0,.81-.09,1.33-.28,1.55-.19.22-.72.33-1.6.33h-19.2c-1.32,0-1.99-.63-1.99-1.88v-2.8c0-.95.29-1.58.87-1.88,1.15-.58,1.73-1.46,1.73-2.65v-51.27c0-1.15-.41-1.99-1.22-2.49-.88-.51-1.39-.91-1.53-1.2-.14-.29-.2-1.16-.2-2.62,0-1.22.18-1.99.53-2.29.36-.31.96-.46,1.81-.46h13.75c.64,0,1.09.18,1.32.53.24.36.36,1.21.36,2.57v10.44Z"/>
      <path class="cls-2" d="m530.29,201.35l5.11-26.82c.1-.41.17-.71.2-.92.24-1.02.36-1.68.36-1.98,0-.88-.61-1.8-1.82-2.75-.57-.44-.93-.95-1.06-1.53-.14-.58-.2-1.73-.2-3.46,0-1.09.48-1.63,1.43-1.63h8.76c.98,0,1.65.2,2.01.61.36.41.53,1.48.53,3.21,0,1.02-.06,1.61-.18,1.78-.12.17-.5.49-1.15.97-.95.65-1.65,2.14-2.09,4.48l-8.5,44.81c-1.49,7.81-2.61,12.82-3.33,15.05-.73,2.22-1.87,4.21-3.41,5.96-1.54,1.75-3.36,3.06-5.45,3.95-2.09.88-4.51,1.32-7.26,1.32-2.99,0-5.29-.71-6.9-2.11-1.61-1.41-2.42-3.25-2.42-5.52,0-1.66.54-2.99,1.63-3.97,1.09-.98,2.43-1.48,4.02-1.48,2.38,0,4.06,1.39,5.04,4.17.48,1.36,1.17,2.04,2.09,2.04,1.73,0,2.6-.9,2.6-2.7,0-.58-.34-2.48-1.02-5.7l-10.9-52.8c-.51-2.55-.94-4.3-1.3-5.27s-.86-1.6-1.5-1.91c-.61-.31-.92-.93-.92-1.88v-2.85c0-.95.14-1.54.41-1.78.27-.24.8-.36,1.58-.36h17.92c.95,0,1.58.11,1.88.33.31.22.46.72.46,1.5,0,1.66-.07,2.75-.2,3.26s-.52.9-1.17,1.17c-1.02.41-1.52,1.26-1.52,2.54,0,.75.12,1.71.36,2.9l5.91,27.37Z"/>
    </g>
    <g>
      <path class="cls-3" d="m156.91,150.4c-3.2,3.27-4.8,7.23-4.8,11.89,0,.08,0,.16.01.24,4.26-4.79,7.48-9.98,9.66-15.57-1.79.8-3.41,1.96-4.87,3.44Z"/>
      <path class="cls-3" d="m165.27,76.58v51.18c0,6.86-1.16,13.26-3.49,19.2-1.79.8-3.41,1.96-4.87,3.44-3.2,3.27-4.8,7.23-4.8,11.89,0,.08,0,.16.01.24-1.86,2.1-3.93,4.12-6.19,6.06l-26.76,23.06c-5.05,4.6-10.86,7.89-17.42,9.86v-37.85l24.65-21.64c4.3-3.38,6.44-8.01,6.44-13.87v-52.94c0-1.59-.22-3.12-.68-4.59-1.01-3.38-3.19-6.47-6.54-9.28l-17.6-15.1-9.95-8.54c-3.12-2.73-6.51-4.1-10.16-4.1h-9.57c-3.65,0-8.4,3-14.26,8.99l-24.42,24.22c-4.3,4.3-6.45,9.12-6.45,14.46v42c0,5.08,2.41,10.03,7.23,14.85l23.64,23.64c1.26,1.26,2.5,2.39,3.69,3.38v37.51c-8.27-1.82-15.56-5.88-21.86-12.18l-12.7-12.7v72.68c0,4.69-1.59,8.66-4.78,11.91-3.2,3.26-7.07,4.89-11.63,4.89s-8.5-1.63-11.82-4.89c-3.32-3.25-4.98-7.22-4.98-11.91V16.41c0-4.43,1.63-8.27,4.88-11.53C8.14,1.63,12.11,0,16.8,0c4.43,0,8.27,1.63,11.53,4.88,3.25,3.26,4.88,7.1,4.88,11.53v10.55C49.1,9.25,64.79.39,80.29.39h7.62c11.59,0,22.27,4.3,32.04,12.89l8.34,7.21,19.01,16.43c2.28,1.98,4.34,4.06,6.19,6.25,7.85,9.3,11.78,20.44,11.78,33.41Z"/>
    </g>
    <g>
      <path class="cls-1" d="m156.91,150.4c-3.2,3.27-4.8,7.23-4.8,11.89,0,.08,0,.16.01.24,4.26-4.79,7.48-9.98,9.66-15.57-1.79.8-3.41,1.96-4.87,3.44ZM233.56,5.1c-3.27-3.26-7.23-4.9-11.89-4.9h-55.77c-6.93,0-13.62,1.67-20.08,5-6.47,3.33-11.49,7.39-15.09,12.19l-2.44,3.1,19.01,16.43c2.28,1.98,4.34,4.06,6.19,6.25l1.31-1.69c3.85-4.93,8.38-7.36,13.59-7.3h53.25c4.14,0,7.97-1.63,11.51-4.9,3.53-3.26,5.3-7.36,5.3-12.29,0-4.66-1.63-8.62-4.89-11.89Z"/>
      <path class="cls-1" d="m237.25,145.5v69.96c0,13.86-4.93,25.71-14.78,35.57-9.87,9.86-21.72,14.79-35.58,14.79h-68.35c-13.99,0-25.95-4.93-35.88-14.79-9.93-9.86-14.89-21.71-14.89-35.57v-92.94c0-16.65,4.46-30.71,13.39-42.17l26.86-34.11,17.6,15.1c3.35,2.81,5.53,5.9,6.54,9.28l-24.46,31.48c-3.99,4.8-5.98,11.47-5.95,19.99v92.96c0,4.8,1.63,8.87,4.89,12.2,3.27,3.33,7.23,4.99,11.9,4.99h68.35c4.53,0,8.46-1.66,11.79-4.99s5-7.26,5-11.79v-36.38h-34.78c-4.8,0-8.79-1.63-11.99-4.9-3.14-3.2-4.74-7.08-4.79-11.65,4.26-4.79,7.48-9.98,9.66-15.57,2.13-.97,4.51-1.46,7.12-1.46h68.35Z"/>
    </g>
  </g>
</svg>